<svg id="shop" xmlns="http://www.w3.org/2000/svg" width="62.075" height="54.199" viewBox="0 0 62.075 54.199">
  <g id="Group_4" data-name="Group 4" transform="translate(0)">
    <path id="Path_3" data-name="Path 3" d="M260.821,263.75h-8.435a4.19,4.19,0,0,0-4.186,4.186V274.4a4.19,4.19,0,0,0,4.186,4.186h8.435a4.19,4.19,0,0,0,4.186-4.186v-6.469A4.19,4.19,0,0,0,260.821,263.75Zm1.142,10.655a1.145,1.145,0,0,1-1.142,1.142h-8.435a1.145,1.145,0,0,1-1.142-1.142v-6.469a1.145,1.145,0,0,1,1.142-1.142h8.435a1.145,1.145,0,0,1,1.142,1.142Z" transform="translate(-216.718 -234.234)" fill="#608400"/>
    <path id="Path_4" data-name="Path 4" d="M62.075,48.808a1.413,1.413,0,0,0-.2-.748L52.639,31.824a1.53,1.53,0,0,0-1.319-.774H10.743a1.5,1.5,0,0,0-1.319.774L.2,48.059a1.539,1.539,0,0,0-.2.748,8.9,8.9,0,0,0,5.327,8.143V83.727a1.527,1.527,0,0,0,1.522,1.522H55.213a1.527,1.527,0,0,0,1.522-1.522V57.141a.67.67,0,0,0-.013-.165A8.929,8.929,0,0,0,62.075,48.808Zm-50.444-14.7h38.8l7.217,12.7H4.427ZM44.178,49.835a5.85,5.85,0,0,1-11.517,0Zm-14.751,0a5.857,5.857,0,0,1-11.53,0Zm-26.281,0h11.53a5.857,5.857,0,0,1-11.53,0ZM25.571,82.2H16.819V65.779a2.168,2.168,0,0,1,2.169-2.169h4.427a2.168,2.168,0,0,1,2.169,2.169V82.2Zm28.12,0H28.615V65.779A5.221,5.221,0,0,0,23.4,60.566H18.975a5.221,5.221,0,0,0-5.213,5.213V82.217H8.371V57.7c.178.013.355.013.533.013a8.893,8.893,0,0,0,7.382-3.932,8.9,8.9,0,0,0,14.764,0,8.872,8.872,0,0,0,14.739,0,8.893,8.893,0,0,0,7.382,3.932c.178,0,.342-.013.52-.013V82.2Zm-.52-27.537a5.847,5.847,0,0,1-5.759-4.82h11.53A5.883,5.883,0,0,1,53.171,54.668Z" transform="translate(0 -31.05)" fill="#88a53b"/>
  </g>
</svg>
