<svg id="user_14_" data-name="user (14)" xmlns="http://www.w3.org/2000/svg" width="50.008" height="36.812" viewBox="0 0 50.008 36.812">
  <g id="Group_5" data-name="Group 5" transform="translate(0 0)">
    <path id="Path_5" data-name="Path 5" d="M316.06,163.837a41.684,41.684,0,0,0-7.042-4.582v-3.97a3.3,3.3,0,0,0,1.031-2.4v-5.113a5.627,5.627,0,0,0-5.623-5.623h-1.1a5.627,5.627,0,0,0-5.623,5.623v5.113a3.3,3.3,0,0,0,1.031,2.4v3.552a1.01,1.01,0,0,0,2.021,0v-4.031a1.013,1.013,0,0,0-.449-.837,1.289,1.289,0,0,1-.582-1.082v-5.113a3.609,3.609,0,0,1,3.6-3.6h1.1a3.609,3.609,0,0,1,3.6,3.6v5.113a1.288,1.288,0,0,1-.582,1.082.988.988,0,0,0-.449.837v4.94a1.249,1.249,0,0,0,.694,1.112,39.975,39.975,0,0,1,7.083,4.542,1.464,1.464,0,0,1,.531,1.133v3.511a1.01,1.01,0,0,0,2.021,0v-3.511A3.469,3.469,0,0,0,316.06,163.837Z" transform="translate(-267.317 -134.241)" fill="#88a53b"/>
    <path id="Path_6" data-name="Path 6" d="M17.819,64.65H16.391A6.991,6.991,0,0,0,9.41,71.631v6.624a3.992,3.992,0,0,0,1.337,2.98v5.45a53.951,53.951,0,0,0-9.226,5.97A4.215,4.215,0,0,0,0,95.91v4.542a1.006,1.006,0,0,0,1.01,1.01H33.22a1.006,1.006,0,0,0,1.01-1.01V95.91a4.184,4.184,0,0,0-1.541-3.256,53.3,53.3,0,0,0-9.226-5.97v-5.45a3.976,3.976,0,0,0,1.337-2.98V71.621A6.982,6.982,0,0,0,17.819,64.65Zm4.358,23.637A51.1,51.1,0,0,1,31.4,94.206a2.185,2.185,0,0,1,.8,1.694v3.531H2.021V95.91a2.187,2.187,0,0,1,.8-1.694A51.468,51.468,0,0,1,12.043,88.3a1.312,1.312,0,0,0,.735-1.174V80.734a1.013,1.013,0,0,0-.449-.837,1.976,1.976,0,0,1-.888-1.643V71.621a4.965,4.965,0,0,1,4.96-4.96H17.83a4.965,4.965,0,0,1,4.96,4.96v6.624a1.951,1.951,0,0,1-.888,1.643.988.988,0,0,0-.449.837v6.389A1.274,1.274,0,0,0,22.177,88.287Z" transform="translate(0 -64.65)" fill="#3e510b"/>
  </g>
</svg>
