<svg id="whatsapp_2_" data-name="whatsapp (2)" xmlns="http://www.w3.org/2000/svg" width="34" height="34" viewBox="0 0 34 34">
  <path id="Path_304" data-name="Path 304" d="M0,34l2.924-8.771A16.705,16.705,0,1,1,9.52,31.5Z" fill="#2cb742"/>
  <path id="Path_305" data-name="Path 305" d="M32.9,26.39c-.771-1.457-3.613-3.122-3.613-3.122-.643-.367-1.419-.408-1.786.246a14.723,14.723,0,0,1-1.158,1.267,2.159,2.159,0,0,1-3.07-.3L20.94,22.145l-2.332-2.332a2.159,2.159,0,0,1-.3-3.07,14.722,14.722,0,0,1,1.267-1.158c.654-.367.613-1.143.246-1.786,0,0-1.666-2.842-3.122-3.613a1.6,1.6,0,0,0-1.876.282l-1.03,1.03c-3.266,3.266-1.658,6.954,1.608,10.22L18.382,24.7l2.985,2.985c3.266,3.266,6.954,4.875,10.22,1.608l1.03-1.03A1.6,1.6,0,0,0,32.9,26.39Z" transform="translate(-4.955 -4.129)" fill="#fff"/>
</svg>
